<svg width="40" height="40" viewBox="0 0 40 40" fill="none" xmlns="http://www.w3.org/2000/svg">
<path d="M29.1953 20.9258C29.1797 18.2617 30.3867 16.2539 32.8242 14.7734C31.4609 12.8203 29.3984 11.7461 26.6797 11.5391C24.1055 11.3359 21.2891 13.0391 20.2578 13.0391C19.168 13.0391 16.6758 11.6094 14.7148 11.6094C10.668 11.6719 6.36719 14.8359 6.36719 21.2734C6.36719 23.1758 6.71484 25.1406 7.41016 27.1641C8.33984 29.8281 11.6914 36.3555 15.1875 36.25C17.0156 36.207 18.3086 34.9531 20.6875 34.9531C22.9961 34.9531 24.1914 36.25 26.2305 36.25C29.7578 36.1992 32.7891 30.2656 33.6719 27.5938C28.9414 25.3633 29.1953 21.0625 29.1953 20.9258ZM25.0898 9.01172C27.0703 6.66016 26.8906 4.51953 26.832 3.75C25.082 3.85156 23.0586 4.94141 21.9062 6.28125C20.6367 7.71875 19.8906 9.49609 20.0508 11.5C21.9414 11.6445 23.668 10.6719 25.0898 9.01172Z" fill="black"/>
</svg>
