<svg width="40" height="40" viewBox="0 0 40 40" fill="none" xmlns="http://www.w3.org/2000/svg">
<path d="M36.3425 16.7358H35V16.6667H20V23.3333H29.4192C28.045 27.2142 24.3525 30 20 30C14.4775 30 10 25.5225 10 20C10 14.4775 14.4775 10 20 10C22.5492 10 24.8683 10.9617 26.6342 12.5325L31.3483 7.81833C28.3717 5.04417 24.39 3.33333 20 3.33333C10.7958 3.33333 3.33333 10.7958 3.33333 20C3.33333 29.2042 10.7958 36.6667 20 36.6667C29.2042 36.6667 36.6667 29.2042 36.6667 20C36.6667 18.8825 36.5517 17.7917 36.3425 16.7358Z" fill="#FFC107"/>
<path d="M5.25499 12.2425L10.7308 16.2583C12.2125 12.59 15.8008 10 20 10C22.5492 10 24.8683 10.9617 26.6342 12.5325L31.3483 7.81833C28.3717 5.04417 24.39 3.33333 20 3.33333C13.5983 3.33333 8.04666 6.9475 5.25499 12.2425Z" fill="#FF3D00"/>
<path d="M20 36.6667C24.305 36.6667 28.2167 35.0192 31.1742 32.34L26.0158 27.975C24.2863 29.2903 22.1729 30.0017 20 30C15.665 30 11.9842 27.2358 10.5975 23.3783L5.1625 27.5658C7.92083 32.9633 13.5225 36.6667 20 36.6667Z" fill="#4CAF50"/>
<path d="M36.3425 16.7358H35V16.6667H20V23.3333H29.4192C28.7618 25.1803 27.5778 26.7943 26.0133 27.9758L26.0158 27.9742L31.1742 32.3392C30.8092 32.6708 36.6667 28.3333 36.6667 20C36.6667 18.8825 36.5517 17.7917 36.3425 16.7358Z" fill="#1976D2"/>
</svg>
