<svg width="40" height="40" viewBox="0 0 40 40" fill="none" xmlns="http://www.w3.org/2000/svg">
<path d="M4.09 26.7675C4.55882 27.2362 5.19459 27.4995 5.8575 27.4995C6.52041 27.4995 7.15618 27.2362 7.625 26.7675L20 14.3925L32.375 26.7675C32.8465 27.2229 33.478 27.4749 34.1335 27.4692C34.789 27.4635 35.416 27.2006 35.8795 26.737C36.343 26.2735 36.606 25.6465 36.6117 24.991C36.6174 24.3355 36.3654 23.704 35.91 23.2325L21.7675 9.09C21.2987 8.62132 20.6629 8.35804 20 8.35804C19.3371 8.35804 18.7013 8.62132 18.2325 9.09L4.09 23.2325C3.62132 23.7013 3.35803 24.3371 3.35803 25C3.35803 25.6629 3.62132 26.2987 4.09 26.7675Z" fill="black"/>
</svg>
